<svg id="Capa_1" data-name="Capa 1" xmlns="http://www.w3.org/2000/svg" viewBox="0 0 195.58 79.16"><defs><style>.cls-1{fill:#fff;}</style></defs><title>MAL logo</title><polyline class="cls-1" points="33.08 46.58 50 28.25 50 69.16 68 69.16 68 0.24 49.33 0.24 33.08 21.25 33.33 21.25 18.67 0.24 0 0.24 0 69.16 18 69.16 18 28.25 33.33 46.58"/><path class="cls-1" d="M524.75,255.25l-5.42-15s-22.58-.4-25.5.09c-34.5,5.84-42.83,34.46-21.33,78.92l15-10-7.5-22.5,21.17-.5v23h19.58V257.17H500.92v14.58H483.25c1.75-8.42,5.08-15.42,15.38-16.25Z" transform="translate(-383 -240.09)"/><polygon class="cls-1" points="170.01 53.75 195.58 54 190.17 69.01 152.17 68.87 152.17 0 170.01 0 170.01 53.75"/></svg>